<?xml version="1.0" standalone="no"?>
<!DOCTYPE svg PUBLIC "-//W3C//DTD SVG 20010904//EN"
 "http://www.w3.org/TR/2001/REC-SVG-20010904/DTD/svg10.dtd">
<svg version="1.0" xmlns="http://www.w3.org/2000/svg"
 width="512.000000pt" height="512.000000pt" viewBox="0 0 512.000000 512.000000"
 preserveAspectRatio="xMidYMid meet">
<metadata>
Created by potrace 1.14, written by Peter Selinger 2001-2017
</metadata>
<g transform="translate(0.000000,512.000000) scale(0.100000,-0.100000)"
fill="#000000" stroke="none">
<path d="M2633 4972 c-6 -4 -44 -7 -85 -7 -40 1 -76 -4 -80 -10 -5 -6 -8 -5
-8 3 0 7 -5 10 -12 6 -6 -4 -21 -8 -32 -10 -12 -2 -39 -6 -61 -10 -22 -4 -48
-7 -57 -7 -10 -1 -18 -6 -18 -11 0 -5 -3 -7 -6 -3 -12 12 -194 -63 -224 -93
-34 -34 -64 -48 -115 -54 -79 -9 -107 -15 -151 -31 -23 -9 -51 -17 -63 -20
-31 -6 -231 -106 -231 -115 0 -5 -9 -12 -21 -15 -43 -14 -269 -236 -269 -265
0 -5 -4 -10 -8 -10 -5 0 -17 -16 -28 -35 -10 -19 -21 -35 -25 -35 -3 0 -12
-18 -19 -39 -7 -22 -19 -42 -27 -45 -8 -3 -12 -10 -8 -16 3 -5 -3 -27 -14 -48
-11 -22 -17 -42 -14 -46 4 -3 1 -6 -4 -6 -6 0 -10 -8 -8 -17 1 -10 -2 -26 -7
-36 -5 -10 -11 -32 -12 -50 -2 -18 -8 -59 -12 -92 -10 -74 -10 -345 0 -400 3
-22 8 -58 10 -81 1 -22 6 -47 11 -54 5 -8 10 -26 12 -40 3 -37 9 -64 28 -140
3 -11 7 -28 9 -37 24 -99 28 -121 31 -138 1 -11 3 -20 5 -20 1 0 3 -11 4 -25
2 -14 7 -41 11 -60 4 -19 9 -46 10 -60 4 -48 47 -205 66 -243 11 -20 16 -37
12 -37 -5 0 -3 -4 2 -8 6 -4 19 -24 30 -45 11 -21 36 -55 55 -75 19 -20 32
-38 30 -38 -7 -2 93 -84 103 -84 4 0 5 -4 2 -10 -3 -5 -2 -10 3 -10 5 0 12 -8
15 -17 6 -19 48 -94 57 -103 3 -3 23 -30 45 -60 39 -55 171 -192 231 -240 18
-14 64 -45 103 -70 39 -25 71 -48 71 -52 0 -5 -17 -8 -37 -9 -21 0 -45 -2 -53
-4 -8 -2 -30 -6 -49 -9 -18 -4 -48 -13 -66 -20 -19 -8 -36 -12 -39 -8 -3 3 -6
1 -6 -4 0 -5 -10 -11 -22 -11 -13 -1 -24 -7 -26 -13 -2 -5 -10 -10 -18 -10 -8
0 -14 -5 -14 -11 0 -5 -4 -8 -9 -5 -5 3 -14 -1 -21 -9 -7 -8 -17 -15 -22 -15
-12 0 -25 -11 -109 -93 -54 -52 -76 -67 -97 -66 -15 1 -43 -2 -62 -5 -19 -4
-49 -9 -66 -10 -17 -2 -35 -5 -40 -8 -5 -3 -37 -13 -72 -23 -34 -11 -62 -22
-62 -27 0 -4 -7 -8 -15 -8 -18 0 -155 -81 -155 -92 0 -4 -5 -8 -11 -8 -20 0
-199 -194 -199 -215 0 -4 -8 -19 -18 -33 -23 -33 -75 -157 -75 -177 0 -8 -4
-15 -8 -15 -4 0 -6 -8 -4 -17 1 -10 -1 -22 -5 -28 -4 -5 -7 -17 -8 -25 0 -8
-3 -34 -6 -58 -5 -35 -9 -420 -7 -619 l1 -53 1990 0 1990 0 1 38 c2 180 -2
615 -7 647 -3 22 -6 46 -7 53 0 6 -4 12 -9 12 -5 0 -7 4 -3 9 3 5 -2 31 -11
58 -9 26 -18 53 -19 58 -7 29 -30 75 -38 75 -4 0 -6 4 -3 9 3 5 -1 14 -9 21
-8 7 -15 17 -15 22 0 30 -148 197 -224 253 -79 57 -232 131 -291 139 -11 2
-20 4 -20 5 0 6 -146 24 -177 23 -10 0 -18 3 -18 7 0 19 -130 139 -186 172
-56 33 -159 75 -209 85 -11 2 -30 6 -43 8 -12 3 -47 6 -77 7 -32 1 -55 7 -55
13 0 10 48 46 96 72 12 6 31 20 42 30 11 11 41 37 68 59 40 34 68 62 139 139
6 6 22 27 35 46 14 19 40 48 60 65 64 55 179 179 174 187 -3 4 -1 8 4 8 8 0
66 75 88 115 58 104 89 167 110 223 14 37 30 76 35 87 5 11 11 29 12 40 2 11
8 31 14 45 6 14 16 50 22 80 7 30 15 62 18 70 3 8 7 24 8 35 2 11 6 34 10 50
4 17 8 44 10 60 1 17 5 41 9 55 3 14 8 48 11 75 2 28 8 77 12 110 10 84 7 436
-3 444 -5 3 -9 17 -8 31 0 14 -4 41 -8 60 -5 19 -11 44 -13 56 -3 12 -11 40
-19 63 -9 22 -12 41 -8 41 4 0 2 4 -4 8 -7 4 -14 18 -15 32 -2 14 -10 31 -17
39 -7 7 -16 26 -19 42 -3 16 -9 29 -13 29 -4 0 -14 15 -21 33 -14 35 -86 144
-128 193 -52 62 -60 70 -122 127 -91 82 -87 79 -170 135 -41 29 -81 52 -87 52
-7 0 -12 5 -12 10 0 6 -7 10 -15 10 -8 0 -15 5 -15 10 0 6 -3 9 -7 8 -5 -2
-44 15 -88 37 -44 21 -84 38 -89 36 -5 -1 -13 3 -17 10 -4 7 -15 14 -23 16
-27 5 -51 11 -53 13 -2 2 -7 4 -13 5 -5 1 -12 4 -15 5 -3 1 -9 3 -14 4 -5 0
-13 4 -17 9 -4 4 -20 7 -36 7 -15 0 -28 4 -28 8 0 7 -13 9 -110 14 -22 2 -40
5 -40 8 0 3 -46 6 -101 8 -56 1 -105 4 -108 7 -4 2 -12 1 -18 -3z"/>
</g>
</svg>
